<svg version="1.1" xmlns="http://www.w3.org/2000/svg" width="210mm" height="210mm">
	<circle fill="none" stroke="black" stroke-width="4.79898691" cx="356.43121" cy="382.50949" r="285.046415" />
	<circle fill="#fff" stroke="black" stroke-width="27.59079742" cy="382.19241" cx="356.28305" r="262.11258" />
	<path d="m 255.62033,479.89746 0,-245.24568 c -10.90114,-0.69954 -19.99513,0 -25.70801,1.69054 -1.63225,-3.55598 8.39446,-9.03568 25.70801,-14.2822 l 0,-47.21868 25.53306,0 0,40.80627 c 91.98894,-19.06236 275.38403,-20.05336 276.37505,138.97449 0.64123,112.27554 -198.2602,95.13691 -255.91363,131.57107 -62.7251,39.5238 -34.56875,123.17664 -34.56875,123.17664 0,0 -37.94982,-78.34803 -11.42573,-129.47245 z m 25.53306,-27.34021 c 26.9321,-18.30452 73.15982,-40.39821 82.07889,-82.66184 C 381.187,284.90178 327.14786,249.6335 281.15339,238.55751 Z" />
	<g transform="matrix(0.066063984,0,0,0.066063984,351.535,262.067)">
		<path fill="#fff" d="m702.2 540.7c22.2 35.4 37 234.5-199.7 227.2-142.7-4.1-245.2-173-204-354.4 41.2-182.5 227.2-288.8 390-285.7 283.2 7.3 427.5 221 469.5 340.9 37 110.5 59 257.5 58 350.3h-424c29.6-168.9 11.6-237.7 11.6-237.7s-41.2-172-164.8-172-149 107.4-149 107.4-13.7 83.4 48.6 96.9c15.9 3.2 48.6 1.1 48.6-39.6 0-19.8-16.9-38.6-46.5-34.4 13.8-65.7 104.6-90.7 161.7 1.1zm-28.5 389.9c-31.7 0-57.1 25-57.1 56.3 0 31.1 25.4 57.1 57.1 57.1h1 660.3c32 0 58-26 58-57.1 0-31.3-26-56.3-58-56.3h-661.3zm61.3-90.7c-18 0-31.8 15.6-31.8 34.4 0 19.8 13.8 34.4 31.8 34.4h538c17 0 32-14.6 32-34.4 0-18.8-15-34.4-32-34.4zm-29.6 225.1c-19 0-34.9 16-34.9 34 0 19 15.9 35 34.9 35h596.6c19 0 35-16 35-35 0-18-16-34-35-34h-596.6zm23.2 88-143.7 899 245.2-183 173.9 186 175-186 245 183-145-899z"/>
	</g>
	<g transform="matrix(0.239953076,0,0,0.239953076,416.575,264.37)">
		<g stroke="black" stroke-width="9" fill="#e2001a">
			<circle cx="221" cy="151" r="21.5" />
			<circle cx="260" cy="88" r="21.5" />
			<circle cx="324.5" cy="49.5" r="21.5" />
			<circle cx="399.5" cy="47.5" r="21.5" />
			<circle cx="463" cy="87" r="21.5" />
			<circle cx="484" cy="156" r="21.5" />
			<circle cx="445" cy="218" r="21.5" />
			<path stroke-miterlimit="9" d="M 323,290 c 6,96 19,200 35,281.5 -14,-6.7 -43.7,-66.9 -61,-116.5 l -33,130 -33,-130 c -17.3,49.6 -47,109.8 -61,116.5 16,-81.5 29,-185.5 35,-281.5 l 10.5,-80 c -0.2,-133.8 137,-199.6 223.7,-139.9 45.2,31.2 50.4,84.7 27.9,121.1 -29.2,47.3 -98.2,45.2 -115.6,0.8 l 16.4,-13.5 c 51.3,60 97.4,-23.9 48.2,-58.8 -36.7,-26.1 -102.1,-5.7 -101.7,90.3 z" />
			<g stroke="none">
				<circle cx="221" cy="151" r="17" />
				<circle cx="260" cy="88" r="17" />
				<circle cx="324.5" cy="49.5" r="17" />
				<circle cx="399.5" cy="47.5" r="17" />
				<circle cx="463" cy="87" r="17" />
				<circle cx="484" cy="156" r="17" />
				<circle cx="445" cy="218" r="17" />
			</g>
			<path stroke-width="4" fill="none" d="M 265.5,212.7 c -1.5,-130.7 115.3,-159.1 165.8,-114 67.4,60.2 -21.8,150.4 -62.6,77.9" />
			<path stroke="none" fill="black" d="M 261.5,287 l 2,259 1,0 2,-259" />
			<path d="M 185.5,214.5 h 157 v 71 h -157 z" />
			<path d="M 168.5,234.5 h 191 v 31 h -191 z" />
		</g>
	</g>
</svg>
